<?xml version="1.0" encoding="UTF-8"?>
<svg version="1.1" xmlns="http://www.w3.org/2000/svg" width="268" height="268">
<path d="M0 0 C3.91167439 0.65004975 7.20622015 2.1080093 10.72558594 3.890625 C11.46309082 4.2522876 12.2005957 4.6139502 12.96044922 4.98657227 C19.26324501 8.16552336 24.86248161 11.94948211 30.35058594 16.390625 C31.25035156 17.08929687 32.15011719 17.78796875 33.07714844 18.5078125 C44.07837939 27.21582911 55.48622658 37.5462873 62.73339844 49.71191406 C65.92564267 54.67789305 65.92564267 54.67789305 71.10742188 57.09619141 C74.3965209 57.24342567 77.56659629 57.12280245 80.85058594 56.890625 C83.17076193 56.80357374 85.49107983 56.72022408 87.81152344 56.640625 C88.93010742 56.59035156 90.04869141 56.54007813 91.20117188 56.48828125 C95.32232261 56.36049363 99.369931 56.54883026 103.47558594 56.890625 C105.21195312 57.02984375 105.21195312 57.02984375 106.98339844 57.171875 C107.76457031 57.2440625 108.54574219 57.31625 109.35058594 57.390625 C109.81207031 56.53082031 110.27355469 55.67101562 110.74902344 54.78515625 C117.7571392 41.98471141 126.33809968 31.02418653 136.35058594 20.390625 C136.93324219 19.75511719 137.51589844 19.11960937 138.11621094 18.46484375 C144.86851162 11.34968579 153.93030633 4.43044632 163.35058594 1.390625 C166.46264894 1.54359891 167.97665706 2.11155308 170.47558594 3.9765625 C172.88569636 7.07957968 174.11720828 10.3331177 175.35058594 14.015625 C175.60477295 14.75546631 175.85895996 15.49530762 176.12084961 16.25756836 C185.17609919 43.49770461 188.00015196 75.12599031 176.24462891 101.90283203 C172.38218036 111.09146975 177.00884422 121.31607686 180.39990234 130.16064453 C185.20965509 141.4426891 193.85924757 149.76544786 204.17871094 156.13671875 C206.35058594 158.390625 206.35058594 158.390625 206.90917969 162.125 C206.59117724 166.88293282 204.73164944 170.54514321 202.41308594 174.640625 C202.00630615 175.38006348 201.59952637 176.11950195 201.18041992 176.88134766 C197.44736089 183.51326258 193.22508862 189.53462346 188.35058594 195.390625 C187.5578125 196.34710938 186.76503906 197.30359375 185.94824219 198.2890625 C181.09683657 203.88389047 176.12214515 208.17390938 170.02246094 212.34375 C166.307334 215.18984139 163.45844186 218.56914682 160.51855469 222.19140625 C158.023893 224.72202702 155.52467448 225.83716897 152.35058594 227.390625 C150.44953472 229.1747675 150.44953472 229.1747675 148.91308594 231.203125 C141.97994571 239.44753305 133.1970453 246.24338649 122.35058594 248.390625 C118.18527666 248.65856689 114.02119187 248.7041105 109.84790039 248.74072266 C107.84645865 248.7649193 105.84548917 248.82143016 103.84472656 248.87890625 C86.65816435 249.03003381 70.84982604 243.14779602 54.81616211 237.47143555 C52.28908608 236.57847841 49.75680126 235.70167516 47.22363281 234.82617188 C32.72231658 229.76501446 17.7137599 224.49742565 5.03808594 215.640625 C4.30009766 215.1353125 3.56210937 214.63 2.80175781 214.109375 C-12.91653198 203.09430288 -25.24865277 189.10791413 -34.64941406 172.390625 C-35.21789062 171.41867188 -35.78636719 170.44671875 -36.37207031 169.4453125 C-37.85648654 165.89542415 -37.8780689 163.20153901 -37.64941406 159.390625 C-35.56648129 158.2648781 -33.48308498 157.14000417 -31.39941406 156.015625 C-30.23925781 155.38914063 -29.07910156 154.76265625 -27.88378906 154.1171875 C-24.64941406 152.390625 -24.64941406 152.390625 -22.35253906 151.4140625 C-20.11530387 150.06966888 -19.67394031 148.76837967 -18.64941406 146.390625 C-17.14791082 143.9547624 -15.62241009 141.53566125 -14.08691406 139.12109375 C-12.35424249 135.82995943 -11.2882749 133.06806771 -10.64941406 129.390625 C-11.70886406 125.98417644 -11.70886406 125.98417644 -13.64941406 122.640625 C-28.61704355 93.25903455 -31.17326215 58.05886935 -21.39941406 26.640625 C-11.64139994 -0.6935712 -11.64139994 -0.6935712 0 0 Z " fill="#E76412" transform="translate(49.6494140625,9.609375)"/>
<path d="M0 0 C3.91167439 0.65004975 7.20622015 2.1080093 10.72558594 3.890625 C11.46309082 4.2522876 12.2005957 4.6139502 12.96044922 4.98657227 C19.26324501 8.16552336 24.86248161 11.94948211 30.35058594 16.390625 C31.25035156 17.08929687 32.15011719 17.78796875 33.07714844 18.5078125 C44.07837939 27.21582911 55.48622658 37.5462873 62.73339844 49.71191406 C65.92564267 54.67789305 65.92564267 54.67789305 71.10742188 57.09619141 C74.3965209 57.24342567 77.56659629 57.12280245 80.85058594 56.890625 C83.17076193 56.80357374 85.49107983 56.72022408 87.81152344 56.640625 C88.93010742 56.59035156 90.04869141 56.54007813 91.20117188 56.48828125 C95.32232261 56.36049363 99.369931 56.54883026 103.47558594 56.890625 C105.21195312 57.02984375 105.21195312 57.02984375 106.98339844 57.171875 C107.76457031 57.2440625 108.54574219 57.31625 109.35058594 57.390625 C109.81207031 56.53082031 110.27355469 55.67101562 110.74902344 54.78515625 C117.7571392 41.98471141 126.33809968 31.02418653 136.35058594 20.390625 C136.93324219 19.75511719 137.51589844 19.11960937 138.11621094 18.46484375 C144.86851162 11.34968579 153.93030633 4.43044632 163.35058594 1.390625 C166.46264894 1.54359891 167.97665706 2.11155308 170.47558594 3.9765625 C172.88569636 7.07957968 174.11720828 10.3331177 175.35058594 14.015625 C175.60477295 14.75546631 175.85895996 15.49530762 176.12084961 16.25756836 C185.17609919 43.49770461 188.00015196 75.12599031 176.24462891 101.90283203 C172.38218036 111.09146975 177.00884422 121.31607686 180.39990234 130.16064453 C185.20965509 141.4426891 193.85924757 149.76544786 204.17871094 156.13671875 C206.35058594 158.390625 206.35058594 158.390625 206.90917969 162.125 C206.59117724 166.88293282 204.73164944 170.54514321 202.41308594 174.640625 C202.00630615 175.38006348 201.59952637 176.11950195 201.18041992 176.88134766 C197.44736089 183.51326258 193.22508862 189.53462346 188.35058594 195.390625 C187.5578125 196.34710938 186.76503906 197.30359375 185.94824219 198.2890625 C181.09683657 203.88389047 176.12214515 208.17390938 170.02246094 212.34375 C166.307334 215.18984139 163.45844186 218.56914682 160.51855469 222.19140625 C158.023893 224.72202702 155.52467448 225.83716897 152.35058594 227.390625 C150.44953472 229.1747675 150.44953472 229.1747675 148.91308594 231.203125 C141.97994571 239.44753305 133.1970453 246.24338649 122.35058594 248.390625 C118.18527666 248.65856689 114.02119187 248.7041105 109.84790039 248.74072266 C107.84645865 248.7649193 105.84548917 248.82143016 103.84472656 248.87890625 C86.65816435 249.03003381 70.84982604 243.14779602 54.81616211 237.47143555 C52.28908608 236.57847841 49.75680126 235.70167516 47.22363281 234.82617188 C32.72231658 229.76501446 17.7137599 224.49742565 5.03808594 215.640625 C4.30009766 215.1353125 3.56210937 214.63 2.80175781 214.109375 C-12.91653198 203.09430288 -25.24865277 189.10791413 -34.64941406 172.390625 C-35.21789062 171.41867188 -35.78636719 170.44671875 -36.37207031 169.4453125 C-37.85648654 165.89542415 -37.8780689 163.20153901 -37.64941406 159.390625 C-35.56648129 158.2648781 -33.48308498 157.14000417 -31.39941406 156.015625 C-30.23925781 155.38914063 -29.07910156 154.76265625 -27.88378906 154.1171875 C-24.64941406 152.390625 -24.64941406 152.390625 -22.35253906 151.4140625 C-20.11530387 150.06966888 -19.67394031 148.76837967 -18.64941406 146.390625 C-17.14791082 143.9547624 -15.62241009 141.53566125 -14.08691406 139.12109375 C-12.35424249 135.82995943 -11.2882749 133.06806771 -10.64941406 129.390625 C-11.70886406 125.98417644 -11.70886406 125.98417644 -13.64941406 122.640625 C-28.61704355 93.25903455 -31.17326215 58.05886935 -21.39941406 26.640625 C-11.64139994 -0.6935712 -11.64139994 -0.6935712 0 0 Z M-2.64941406 12.390625 C-7.05098853 21.91269777 -10.3096695 31.13828972 -12.64941406 41.390625 C-12.82819092 42.10460449 -13.00696777 42.81858398 -13.19116211 43.55419922 C-14.9151862 51.02625018 -14.99643799 58.37193145 -14.96191406 66.015625 C-14.95909424 66.68147614 -14.95627441 67.34732727 -14.95336914 68.03335571 C-14.81914873 89.11450704 -9.83839976 107.21390496 1.41699219 125.1640625 C2.64517029 128.09319019 2.31293875 129.3782369 1.35058594 132.390625 C-4.47858234 146.59922267 -12.86429996 155.83535239 -25.64941406 164.390625 C-21.95156093 171.91640649 -17.08955611 178.04686614 -11.64941406 184.390625 C-11.03324219 185.15375 -10.41707031 185.916875 -9.78222656 186.703125 C6.6443203 206.44318132 30.24333486 217.24273165 54.28808594 224.390625 C62.43311111 226.81834648 70.43193438 229.32907172 78.29199219 232.578125 C92.55659184 238.43546639 110.90469789 240.77401071 125.58886719 234.87890625 C131.17808279 231.86689614 136.29015888 228.21043123 141.35058594 224.390625 C140.85302502 221.63421084 140.85302502 221.63421084 139.35058594 219.390625 C135.26207526 219.05686903 132.64891708 219.2627688 128.85058594 220.890625 C117.21416107 225.57658415 102.82428391 221.93394216 91.72558594 217.29296875 C85.23487756 213.96873443 79.62779521 209.0212588 74.75683594 203.625 C74.29277344 203.21765625 73.82871094 202.8103125 73.35058594 202.390625 C70.74778026 202.71103897 70.74778026 202.71103897 68.35058594 203.390625 C67.35058594 202.390625 67.35058594 202.390625 66.97558594 200.078125 C67.35058594 197.390625 67.35058594 197.390625 69.28808594 195.078125 C73.34318565 192.8436823 76.80460525 192.69124336 81.35058594 193.390625 C83.62792969 194.4140625 83.62792969 194.4140625 85.35058594 195.390625 C85.14433594 196.40125 84.93808594 197.411875 84.72558594 198.453125 C84.94530018 202.38218169 84.94530018 202.38218169 87.33105469 204.30859375 C99.44624939 212.90470013 111.70167697 214.9857934 126.35058594 213.390625 C131.42457392 211.77418848 134.40451346 209.80973372 137.35058594 205.390625 C136.65191406 204.85953125 135.95324219 204.3284375 135.23339844 203.78125 C134.32332031 203.07484375 133.41324219 202.3684375 132.47558594 201.640625 C131.57066406 200.94453125 130.66574219 200.2484375 129.73339844 199.53125 C126.34657875 196.48866445 125.53265498 194.39200472 124.72558594 189.953125 C125.48068798 185.64904337 125.48068798 185.64904337 128.22558594 183.453125 C135.70848048 179.39710166 146.43100106 180.32299622 154.51855469 182.078125 C156.97558594 182.890625 156.97558594 182.890625 160.35058594 184.390625 C161.11952253 190.23698421 160.94301834 194.3643385 157.35058594 199.203125 C154.27078232 202.77946838 151.04822009 204.99227365 146.95214844 207.26171875 C145.05335929 208.36954789 145.05335929 208.36954789 144.35058594 211.203125 C144.35058594 211.925 144.35058594 212.646875 144.35058594 213.390625 C147.60156276 215.55794288 148.57890937 215.93025605 152.35058594 215.390625 C159.90612954 209.56568077 163.12766697 201.26868399 165.41308594 192.328125 C165.72246094 191.35875 166.03183594 190.389375 166.35058594 189.390625 C167.34058594 189.060625 168.33058594 188.730625 169.35058594 188.390625 C170.01058594 191.030625 170.67058594 193.670625 171.35058594 196.390625 C172.01058594 196.390625 172.67058594 196.390625 173.35058594 196.390625 C179.66536483 189.58682282 184.86614209 182.11420285 189.03808594 173.828125 C189.37662598 173.16232422 189.71516602 172.49652344 190.06396484 171.81054688 C192.4974127 166.78737322 192.4974127 166.78737322 192.35058594 161.390625 C189.92992276 159.03225831 187.28599457 157.21951394 184.53808594 155.2578125 C175.31110852 147.63017784 171.17459532 136.94287387 167.28808594 126.015625 C162.05718743 111.49576876 156.58258421 98.44113676 145.35058594 87.390625 C144.78726563 86.82859375 144.22394531 86.2665625 143.64355469 85.6875 C135.0844707 77.77399169 124.59574592 73.04171858 113.35058594 70.390625 C112.59753174 70.21184814 111.84447754 70.03307129 111.06860352 69.84887695 C103.47680373 68.24241375 96.00742379 68.11607729 88.28833008 68.18481445 C86.15596618 68.20318634 84.02403685 68.20532253 81.89160156 68.20507812 C75.3090189 68.22261941 68.85801476 68.33559439 62.35058594 69.390625 C62.10050781 68.84277344 61.85042969 68.29492188 61.59277344 67.73046875 C50.44452101 46.7310876 24.0616224 20.22052519 1.35058594 12.390625 C0.03058594 12.390625 -1.28941406 12.390625 -2.64941406 12.390625 Z " fill="#23140E" transform="translate(49.6494140625,9.609375)"/>
<path d="M0 0 C5.63760119 -0.04985295 11.27507087 -0.08593183 16.9128418 -0.10986328 C18.82627603 -0.11985174 20.73969527 -0.13344716 22.65307617 -0.15087891 C43.14484812 -0.33274271 43.14484812 -0.33274271 52 2 C53.16897827 2.29608154 53.16897827 2.29608154 54.36157227 2.59814453 C56.71569751 3.22783573 59.04447 3.9131544 61.375 4.625 C62.22006104 4.87934814 63.06512207 5.13369629 63.93579102 5.39575195 C70.38340164 7.38560879 76.65635659 9.72820734 82.9375 12.1875 C92.74250888 15.97696517 101.53786256 19.00157642 112.171875 19.109375 C113.85168457 19.13463257 113.85168457 19.13463257 115.56542969 19.16040039 C117.8213227 19.17819994 120.07790427 19.15773367 122.33300781 19.09545898 C130.12196002 19.12007717 130.12196002 19.12007717 132.70776367 21.71142578 C133.98046875 23.83203125 133.98046875 23.83203125 135.03662109 26.0246582 C136.29943489 28.61397053 137.95165867 29.8994296 140.3125 31.5 C141.35857422 32.22703125 141.35857422 32.22703125 142.42578125 32.96875 C142.94527344 33.3090625 143.46476563 33.649375 144 34 C139.46722343 38.93272745 135.43829223 42.06085596 128.609375 42.3984375 C126.98961611 42.41136904 125.36957179 42.40280792 123.75 42.375 C122.9038916 42.36484863 122.0577832 42.35469727 121.18603516 42.34423828 C110.56083386 42.0804994 103.53958138 39.26934502 95 33 C93.515 32.01 93.515 32.01 92 31 C91.8125 27.375 91.8125 27.375 92 24 C87.67961861 21.5508042 83.87667762 21.29713365 79 22 C75.87138661 23.48345108 75.87138661 23.48345108 74 26 C73.58129447 28.66928121 73.58129447 28.66928121 74 31 C76.76264289 31.59732819 79.16032769 32 82 32 C83.47265625 33.5390625 83.47265625 33.5390625 85.0625 35.625 C92.75172183 44.72981079 104.40602419 49.17212093 116 51 C124.42301494 51.49047791 131.20055036 51.34262127 139 48 C142.875 47.6875 142.875 47.6875 146 48 C148 50 148 50 148.02734375 51.83984375 C146.4412682 55.1748239 143.60035317 56.67220941 140.5625 58.5625 C139.98306641 58.94857422 139.40363281 59.33464844 138.80664062 59.73242188 C130.42736288 65.06138833 121.93296288 66.52468736 112.125 66.375 C110.67275024 66.35977295 110.67275024 66.35977295 109.19116211 66.34423828 C99.25771174 66.12892868 91.30285008 63.98532898 82.1484375 60.1875 C74.92034155 57.24618137 67.58388851 54.93624005 60.10455322 52.73110962 C38.86344511 46.42645516 21.74731466 37.83697459 5 23 C5 22.67 5 22.34 5 22 C10.61 22 16.22 22 22 22 C20.040625 20.370625 18.08125 18.74125 16.0625 17.0625 C4.63341611 7.44755641 4.63341611 7.44755641 0 2 C0 1.34 0 0.68 0 0 Z " fill="#FCF1D6" transform="translate(43,181)"/>
<path d="M0 0 C11.82397287 6.1935096 19.27221423 14.72840542 23.51953125 27.36328125 C24.44816936 31.09870196 24.64662399 34.75924107 24.88671875 38.58984375 C25.69416888 44.91486974 29.52371957 50.92771977 34.21484375 55.16015625 C41.07884849 60.82711678 41.07884849 60.82711678 49.21484375 63.16015625 C49.21484375 64.48015625 49.21484375 65.80015625 49.21484375 67.16015625 C27.81646376 67.85699728 11.98817172 64.35026101 -7.97314453 56.81518555 C-23.28663407 51.03620482 -36.92996089 48.14582489 -53.28515625 47.59765625 C-55.09113281 47.53288086 -55.09113281 47.53288086 -56.93359375 47.46679688 C-59.88401818 47.36142457 -62.83451696 47.25929722 -65.78515625 47.16015625 C-65.78515625 46.83015625 -65.78515625 46.50015625 -65.78515625 46.16015625 C-64.74681641 46.12148437 -64.74681641 46.12148437 -63.6875 46.08203125 C-54.9425471 45.57507746 -47.16167186 43.57645883 -38.78515625 41.16015625 C-37.4538551 40.81879698 -36.12157477 40.48089669 -34.78515625 40.16015625 C-35.07390625 39.56589844 -35.36265625 38.97164062 -35.66015625 38.359375 C-39.0839173 30.71535294 -39.89212921 24.04928682 -38.03515625 15.84765625 C-30.83310736 0.36325113 -16.38741031 -6.56106744 0 0 Z " fill="#FBB040" transform="translate(123.78515625,133.83984375)"/>
<path d="M0 0 C7.13285307 4.4412104 9.35664345 10.76848855 11.64794922 18.46142578 C14.12103499 26.57868299 17.01273379 33.56823267 24.71484375 37.98291016 C27.22246781 39.28299072 29.73866561 40.51613896 32.33959961 41.61914062 C36.82545534 43.5715975 36.82545534 43.5715975 37.765625 45.87915039 C38.16805174 49.52069316 36.19826975 52.47767756 34.5625 55.625 C34.20067627 56.3355957 33.83885254 57.04619141 33.46606445 57.77832031 C30.30952421 63.78727098 26.46277208 68.89403461 22 74 C21.47019531 74.74765625 20.94039062 75.4953125 20.39453125 76.265625 C19.93433594 76.83796875 19.47414062 77.4103125 19 78 C18.34 78 17.68 78 17 78 C16.34 75.36 15.68 72.72 15 70 C14.01 70.33 13.02 70.66 12 71 C11.10288971 73.36348326 10.36974309 75.63790412 9.6875 78.0625 C7.78230684 84.30492222 5.54121094 89.1858201 1 94 C0.52175781 94.56847656 0.04351562 95.13695312 -0.44921875 95.72265625 C-2 97 -2 97 -5.6875 96.6875 C-6.780625 96.460625 -7.87375 96.23375 -9 96 C-9.75 94.25 -9.75 94.25 -10 92 C-7.78580912 89.11192493 -4.92868496 87.22708416 -2 85.125 C1.59464881 82.4290134 4.07807304 80.16417507 6 76 C6.30300575 72.63663619 6.23944497 69.36553202 6 66 C5.443125 65.86464844 4.88625 65.72929687 4.3125 65.58984375 C-6.36360821 62.57817133 -12.73652889 54.81426638 -19 46 C-19.53238281 45.25234375 -20.06476563 44.5046875 -20.61328125 43.734375 C-25.73909623 35.24429273 -25.42569456 24.88589497 -23.1484375 15.484375 C-19.13158308 4.60880998 -11.86246358 -2.86059408 0 0 Z " fill="#FAAF3F" transform="translate(204,128)"/>
<path d="M0 0 C5.32489351 0.32272082 8.51359533 3.2684575 12 7 C18.64999911 14.98923505 23.70754755 23.76735713 28.5625 32.9375 C29.08739014 33.92032959 29.61228027 34.90315918 30.15307617 35.91577148 C35.02887315 45.36973614 35.02887315 45.36973614 35 51 C33.91796875 53.08203125 33.91796875 53.08203125 32.1875 54.8125 C31.53910156 55.48667969 30.89070313 56.16085938 30.22265625 56.85546875 C28.69826556 58.32627805 27.16383746 59.78673421 25.62109375 61.23828125 C19.58595429 67.00897015 15.19757857 72.90112071 10.91015625 79.99609375 C9.39546163 82.37809817 8.10269382 84.16096684 6 86 C-7.91852667 67.30940704 -8.46633948 37.17684258 -5.4296875 15.09765625 C-4.45906055 9.4822146 -3.16702075 4.80819397 0 0 Z " fill="#5B1E0A" transform="translate(51,41)"/>
<path d="M0 0 C0.76782227 1.80322266 0.76782227 1.80322266 1.31640625 4.1640625 C1.6254187 5.46476685 1.6254187 5.46476685 1.94067383 6.79174805 C2.14587646 7.72672119 2.3510791 8.66169434 2.5625 9.625 C2.77865967 10.58124268 2.99481934 11.53748535 3.2175293 12.52270508 C8.04549116 34.4184028 9.58761083 57.5017693 2 79 C1.01 79 0.02 79 -1 79 C-2.9375 76.953125 -2.9375 76.953125 -5 74.25 C-5.680625 73.36828125 -6.36125 72.4865625 -7.0625 71.578125 C-7.701875 70.72734375 -8.34125 69.8765625 -9 69 C-9.61101562 68.35933594 -10.22203125 67.71867187 -10.8515625 67.05859375 C-12 65 -12 65 -11.5234375 62.14453125 C-10.95496094 60.49517578 -10.95496094 60.49517578 -10.375 58.8125 C-6.48617153 46.46579048 -4.65190298 33.9256626 -4 21 C-11.83594971 24.37030095 -15.85377672 33.5028287 -19 41 C-20.81671798 45.95042997 -22.42356884 50.96883673 -24 56 C-28.5073499 54.23625439 -32.88642794 52.24333095 -37.28125 50.21875 C-39.83076383 49.07586449 -42.39846893 48.01799042 -45 47 C-37.67051265 32.07099156 -25.80928525 19.79596404 -14.25 8.0625 C-13.70690186 7.50626953 -13.16380371 6.95003906 -12.60424805 6.37695312 C-4.68234127 -1.56078042 -4.68234127 -1.56078042 0 0 Z " fill="#E56011" transform="translate(214,26)"/>
<path d="M0 0 C-1.11169323 10.45931096 -9.84573328 21.56023437 -17 29 C-17.66 29 -18.32 29 -19 29 C-19.66 26.36 -20.32 23.72 -21 21 C-21.99 21.33 -22.98 21.66 -24 22 C-24.89711029 24.36348326 -25.63025691 26.63790412 -26.3125 29.0625 C-28.21769316 35.30492222 -30.45878906 40.1858201 -35 45 C-35.47824219 45.56847656 -35.95648438 46.13695312 -36.44921875 46.72265625 C-38 48 -38 48 -41.6875 47.6875 C-42.780625 47.460625 -43.87375 47.23375 -45 47 C-45.75 45.25 -45.75 45.25 -46 43 C-43.78580912 40.11192493 -40.92868496 38.22708416 -38 36.125 C-34.40535119 33.4290134 -31.92192696 31.16417507 -30 27 C-29.69699425 23.63663619 -29.76055503 20.36553202 -30 17 C-30.66 17 -31.32 17 -32 17 C-32.47975083 13.08203492 -32.79036442 9.53681971 -30.9453125 5.94921875 C-24.16938927 -2.60309517 -9.56102379 -5.94014102 0 0 Z " fill="#FBEFD3" transform="translate(240,177)"/>
<path d="M0 0 C5.32489351 0.32272082 8.51359533 3.2684575 12 7 C18.64999911 14.98923505 23.70754755 23.76735713 28.5625 32.9375 C29.08739014 33.92032959 29.61228027 34.90315918 30.15307617 35.91577148 C35.02887315 45.36973614 35.02887315 45.36973614 35 51 C33.91796875 53.08203125 33.91796875 53.08203125 32.1875 54.8125 C31.5378125 55.48796875 30.888125 56.1634375 30.21875 56.859375 C28.70756026 58.31735383 27.18626344 59.76491237 25.65625 61.203125 C18.45618956 68.08419542 13.25796868 75.60962445 8 84 C7.67 83.34 7.34 82.68 7 82 C7.91842938 79.35347324 8.90393854 76.82262965 10 74.25 C10.31598145 73.49589844 10.63196289 72.74179688 10.95751953 71.96484375 C19.03057065 52.96942935 19.03057065 52.96942935 22 50 C21.72719706 43.15170539 18.76795697 37.58224478 15.8125 31.5 C15.10770508 29.98986328 15.10770508 29.98986328 14.38867188 28.44921875 C12.18319526 23.85773537 10.04348218 19.78096132 6.63671875 15.96875 C4 13 4 13 4 10 C3.34 10 2.68 10 2 10 C2 9.34 2 8.68 2 8 C0.68 8 -0.64 8 -2 8 C-2.33 8.66 -2.66 9.32 -3 10 C-2.25 3.375 -2.25 3.375 0 0 Z " fill="#241009" transform="translate(51,41)"/>
<path d="M0 0 C4.95430634 3.23106935 8.12389406 7.37168218 10 13 C10.12781786 15.67394964 10.04391871 18.32095857 10 21 C7.06639166 19.63446739 4.61363796 18.04784103 2.0625 16.0625 C-3.36822991 11.84099822 -6.85366953 9.58751108 -13.9375 9.6875 C-15.71447266 9.69330078 -15.71447266 9.69330078 -17.52734375 9.69921875 C-22.00629582 10.08715948 -25.60131321 10.92101305 -29.1875 13.6875 C-29.785625 14.120625 -30.38375 14.55375 -31 15 C-31.99 14.67 -32.98 14.34 -34 14 C-34.9375 11.5 -34.9375 11.5 -35 8 C-31.69890199 2.79856663 -27.13782339 -1.8006309 -21.11328125 -3.546875 C-13.35340706 -5.21072972 -6.98350289 -3.55301024 0 0 Z " fill="#23140C" transform="translate(131,159)"/>
<path d="M0 0 C4.99901391 2.66614075 6.82622661 6.99667801 9 12 C8.01 12 7.02 12 6 12 C5.67 11.67 5.34 11.34 5 11 C0.50308948 10.42250202 -3.04107618 10.52053809 -7.125 12.5625 C-10.09354988 15.07931403 -12.76309275 17.73846471 -15.38671875 20.609375 C-17 22 -17 22 -20 22 C-21.75329164 18.49341672 -21.5457547 14.82655592 -21 11 C-18.96457161 6.30847447 -15.50154448 2.95028772 -10.9609375 0.66015625 C-7.27134421 -0.58195782 -3.81786791 -0.69023601 0 0 Z " fill="#22140B" transform="translate(207,149)"/>
<path d="M0 0 C0.66 0 1.32 0 2 0 C3.51281153 5.2713495 2.04701842 7.89574159 -0.48046875 12.546875 C-2.71895301 16.16067478 -4.5523364 18.44872894 -8 21 C-11.875 20.875 -11.875 20.875 -15 20 C-15.75 18.25 -15.75 18.25 -16 16 C-13.78580912 13.11192493 -10.92868496 11.22708416 -8 9.125 C-4.32924142 6.45039523 -2.36951534 3.82767862 0 0 Z " fill="#F2E4C7" transform="translate(210,204)"/>
<path d="M0 0 C-1.04874998 2.62187494 -1.64931313 3.79371361 -4.125 5.25 C-4.74375 5.4975 -5.3625 5.745 -6 6 C-6 6.99 -6 7.98 -6 9 C-6.66 9 -7.32 9 -8 9 C-6.68994234 5.06982701 -4.75047804 0 0 0 Z " fill="#342621" transform="translate(45,10)"/>
<path d="M0 0 C0 0.99 0 1.98 0 3 C-3.3 3 -6.6 3 -10 3 C-6.84916414 -0.15083586 -4.41812253 0 0 0 Z " fill="#FAA734" transform="translate(80,177)"/>
<path d="M0 0 C0.66 0.33 1.32 0.66 2 1 C2 3.64 2 6.28 2 9 C1.01 8.67 0.02 8.34 -1 8 C-0.67 5.36 -0.34 2.72 0 0 Z " fill="#312211" transform="translate(139,171)"/>
</svg>
